<?xml version="1.0" encoding="UTF-8"?>
<svg version="1.1" xmlns="http://www.w3.org/2000/svg" width="500" height="500">
<path d="M0 0 C0.8601622 -0.00701431 1.7203244 -0.01402863 2.60655212 -0.02125549 C5.36926567 -0.03867256 8.1317648 -0.04510856 10.89453125 -0.046875 C12.31122101 -0.04788712 12.31122101 -0.04788712 13.75653076 -0.04891968 C27.65146158 -0.03313166 41.04450962 0.50671436 54.70703125 3.203125 C56.63918871 3.54762854 58.57148716 3.89134203 60.50390625 4.234375 C78.89887444 7.6485476 96.86570628 13.07343869 113.8046875 21.07421875 C119.05966884 23.11821553 124.63262018 23.32794651 130.22265625 23.6328125 C131.46104248 23.7042749 132.69942871 23.7757373 133.9753418 23.84936523 C135.28929932 23.92485596 136.60325684 24.00034668 137.95703125 24.078125 C148.46058474 24.71454775 158.93032473 25.51131954 169.39453125 26.640625 C170.99312988 26.80570557 170.99312988 26.80570557 172.62402344 26.97412109 C188.88202589 28.81334289 202.33415932 32.88654668 213.70703125 45.203125 C213.70703125 45.863125 213.70703125 46.523125 213.70703125 47.203125 C214.36703125 47.203125 215.02703125 47.203125 215.70703125 47.203125 C223.62217058 57.62849423 226.88538369 69.50321185 226.95703125 82.328125 C226.98796875 83.67777344 226.98796875 83.67777344 227.01953125 85.0546875 C227.06433518 92.85057109 225.65315975 99.64640739 221.89453125 106.515625 C220.38784927 109.12000761 220.38784927 109.12000761 221.47631836 111.59521484 C222.62082608 114.02045417 223.84242984 116.31209236 225.2109375 118.6171875 C225.69997559 119.45096924 226.18901367 120.28475098 226.69287109 121.14379883 C227.21316895 122.02962646 227.7334668 122.9154541 228.26953125 123.828125 C242.40093058 148.26375821 252.29536998 173.77026636 257.95703125 201.453125 C258.1080127 202.18305664 258.25899414 202.91298828 258.41455078 203.66503906 C261.38646628 219.0439479 262.08044555 234.26535649 262.01953125 249.890625 C262.01679703 251.34787491 262.01679703 251.34787491 262.01400757 252.83456421 C261.96974229 266.84330027 261.52148871 280.44111448 258.70703125 294.203125 C258.5354248 295.11642578 258.36381836 296.02972656 258.18701172 296.97070312 C255.52059126 311.14395501 251.60555299 324.65005488 246.70703125 338.203125 C246.28550781 339.40324219 245.86398437 340.60335938 245.4296875 341.83984375 C241.49195661 352.61888488 236.49548194 362.92889033 230.30078125 372.5859375 C221.71456807 385.71954204 221.71456807 385.71954204 220.4921875 400.9375 C220.99210702 408.53627667 217.17776918 415.64321266 212.46484375 421.421875 C205.6525545 428.32499477 197.27673169 432.08492162 187.64453125 432.453125 C181.68175811 432.8975553 178.68313843 436.00464046 174.70703125 440.203125 C168.60703125 446.303125 168.60703125 446.303125 165.70703125 448.203125 C165.04703125 448.203125 164.38703125 448.203125 163.70703125 448.203125 C163.70703125 448.863125 163.70703125 449.523125 163.70703125 450.203125 C161.55176859 451.82033627 159.40329133 453.304807 157.14453125 454.765625 C156.46704834 455.20890137 155.78956543 455.65217773 155.09155273 456.10888672 C143.58453596 463.5850542 131.9105901 470.38287787 119.53271484 476.31835938 C117.92961251 477.09525732 116.34226392 477.90448887 114.7578125 478.71875 C96.41104344 487.82956029 75.80682099 493.55160837 55.70703125 497.203125 C54.83771973 497.36538574 53.9684082 497.52764648 53.07275391 497.69482422 C25.63913848 502.57694972 -4.92332515 502.29159451 -32.29296875 497.203125 C-33.59814453 496.96964355 -33.59814453 496.96964355 -34.9296875 496.73144531 C-58.40779046 492.38782287 -82.25713747 484.53627934 -103.29296875 473.203125 C-104.14149414 472.74679687 -104.99001953 472.29046875 -105.86425781 471.8203125 C-115.37489406 466.64840707 -124.64918808 461.163972 -133.60546875 455.078125 C-134.28762451 454.61680176 -134.96978027 454.15547852 -135.67260742 453.68017578 C-137.25315577 452.57692688 -138.77993577 451.39728681 -140.29296875 450.203125 C-140.29296875 449.543125 -140.29296875 448.883125 -140.29296875 448.203125 C-144.74071143 447.13953436 -147.47199479 447.09432328 -151.79296875 448.640625 C-163.84867841 452.58016099 -177.72603577 450.63539379 -189.11523438 445.35888672 C-192.67010949 443.54939701 -196.10961031 441.60990997 -199.29296875 439.203125 C-199.29296875 438.543125 -199.29296875 437.883125 -199.29296875 437.203125 C-199.88335937 436.94273437 -200.47375 436.68234375 -201.08203125 436.4140625 C-209.98385456 431.53850557 -214.35305604 420.49379602 -217.66796875 411.453125 C-219.7177373 400.70802252 -218.27332209 390.71108681 -216.14160156 380.12548828 C-212.79217309 363.4519417 -212.79217309 363.4519417 -219.17285156 348.12402344 C-221.42747529 344.25755015 -222.84587139 340.02791172 -224.35546875 335.828125 C-224.68981934 334.90354492 -225.02416992 333.97896484 -225.36865234 333.02636719 C-233.27371282 310.45478194 -238.30432565 285.77915469 -238.53125 261.8046875 C-238.5458728 260.50754066 -238.5458728 260.50754066 -238.56079102 259.18418884 C-238.73971775 239.18476527 -238.32826957 219.87563098 -234.29296875 200.203125 C-234.1110498 199.30770996 -233.92913086 198.41229492 -233.74169922 197.48974609 C-232.50833807 191.64919138 -230.98522691 185.92609468 -229.29296875 180.203125 C-229.03064453 179.29739746 -228.76832031 178.39166992 -228.49804688 177.45849609 C-222.2018574 156.10161783 -213.18111973 135.19809047 -200.45581055 116.84423828 C-198.33660597 113.66168306 -197.31166044 111.84954586 -197.19921875 107.9609375 C-198.77113357 102.56028729 -200.92515557 97.48087708 -203.16796875 92.328125 C-214.73219741 65.50044755 -214.73219741 65.50044755 -210.29296875 52.203125 C-205.81888867 42.55678037 -199.97898756 36.8375722 -190.11621094 33.0234375 C-185.26249848 31.61315785 -180.55939794 31.74532426 -175.54296875 31.890625 C-173.90606079 31.91382813 -173.90606079 31.91382813 -172.23608398 31.9375 C-165.26954805 32.05866593 -158.31402275 32.36054412 -151.35546875 32.703125 C-148.63318109 32.8219816 -145.91083805 32.93948786 -143.18847656 33.05664062 C-141.17358572 33.15857439 -139.15980474 33.28404016 -137.14746094 33.42773438 C-120.41464355 34.59758178 -110.29120877 32.28882362 -96.00488281 23.72558594 C-68.18305088 8.10648764 -31.81084554 0.17426608 0 0 Z M-80.29296875 35.203125 C-81.95919646 35.87088801 -83.62560467 36.53820451 -85.29296875 37.203125 C-85.29296875 37.863125 -85.29296875 38.523125 -85.29296875 39.203125 C-84.10284341 40.26921743 -82.86418267 41.28145497 -81.60546875 42.265625 C-75.43951618 47.49137912 -71.73111538 53.96691358 -71.0546875 62.05078125 C-70.80848951 72.71504167 -72.6936208 81.58294769 -80.234375 89.48046875 C-88.07705076 96.04331507 -96.3439509 97.46029777 -106.31640625 97.08203125 C-107.06258209 97.05842026 -107.80875793 97.03480927 -108.57754517 97.01048279 C-110.94124153 96.93442087 -113.30456152 96.85015281 -115.66796875 96.765625 C-117.27862793 96.71234661 -118.88930502 96.65960669 -120.5 96.60742188 C-124.43122413 96.4788845 -128.36213203 96.34299098 -132.29296875 96.203125 C-130.22224868 103.1002401 -127.40801759 109.43839701 -124.23046875 115.890625 C-118.87739505 126.80533372 -118.87739505 126.80533372 -117.29296875 132.203125 C-115.96265625 131.1203125 -115.96265625 131.1203125 -114.60546875 130.015625 C-114.10660156 129.60957031 -113.60773438 129.20351562 -113.09375 128.78515625 C-110.71662535 126.69679295 -108.52176058 124.44867467 -106.29296875 122.203125 C-88.53855675 104.77098781 -65.85401231 91.203125 -40.29296875 91.203125 C-32.6355967 91.80591936 -26.09849848 93.69059353 -19.29296875 97.203125 C-18.55046875 97.574375 -17.80796875 97.945625 -17.04296875 98.328125 C-16.46546875 98.616875 -15.88796875 98.905625 -15.29296875 99.203125 C-15.50953125 98.00429687 -15.50953125 98.00429687 -15.73046875 96.78125 C-18.63733881 79.5822688 -17.88275919 63.33275061 -8.29296875 48.203125 C-0.22981578 37.24792496 10.40103135 30.02259535 23.8046875 27.65625 C37.67362338 25.69828258 51.73620136 25.08409177 65.70703125 24.203125 C65.37703125 23.543125 65.04703125 22.883125 64.70703125 22.203125 C62.6339821 21.5615108 62.6339821 21.5615108 60.11328125 21.16796875 C59.16453125 20.99845703 58.21578125 20.82894531 57.23828125 20.65429688 C56.23796875 20.48478516 55.23765625 20.31527344 54.20703125 20.140625 C53.23765625 19.96724609 52.26828125 19.79386719 51.26953125 19.61523438 C6.47583796 11.75827608 -38.42465375 17.94531227 -80.29296875 35.203125 Z M57.26953125 41.078125 C56.17963394 41.13679749 56.17963394 41.13679749 55.06771851 41.19665527 C29.22521119 42.02242054 29.22521119 42.02242054 7.70703125 54.890625 C1.45813985 62.44136878 -1.43212338 71.41591598 -1.29296875 81.203125 C-0.44741512 89.74972094 2.54909699 98.04519074 8.70703125 104.203125 C21.09321832 111.63986206 35.46982771 109.31534291 49.34570312 108.40356445 C51.49702764 108.26301192 53.64880391 108.13208959 55.80078125 108.00195312 C57.18102509 107.91462183 58.56123501 107.82675244 59.94140625 107.73828125 C61.78557129 107.62045288 61.78557129 107.62045288 63.66699219 107.50024414 C66.74861553 107.3128458 66.74861553 107.3128458 69.70703125 106.203125 C69.58881012 108.13771576 69.58881012 108.13771576 69.46820068 110.11138916 C67.65649671 139.76199633 65.85037387 169.41293618 64.05210876 199.06436157 C63.31195062 211.26544775 62.56968612 223.46638958 61.81762123 235.66674805 C61.42509813 242.03678272 61.03645343 248.40704347 60.6517849 254.77755737 C60.44351067 258.22435198 60.23321241 261.67098979 60.01721191 265.11730957 C59.26904922 277.10860093 58.57471503 289.08013026 58.515625 301.09765625 C58.50890274 301.94331146 58.50218048 302.78896667 58.49525452 303.6602478 C58.53293662 312.28095864 60.54241605 318.12047728 66.33203125 324.578125 C73.15565929 330.83311737 81.5450019 333.30089056 90.70703125 333.203125 C100.30916814 332.54716507 109.55406253 329.06439341 116.14453125 321.828125 C117.03443361 320.64586279 117.8904854 319.43719267 118.70703125 318.203125 C119.09503906 317.63207031 119.48304688 317.06101562 119.8828125 316.47265625 C126.23566467 305.63815563 125.24328685 289.9616652 125.94384766 277.69482422 C126.05201946 275.87658276 126.1607022 274.05837163 126.26985168 272.2401886 C126.56216345 267.34657616 126.84731684 262.45257099 127.13103914 257.55845404 C127.42992438 252.4231792 127.73529351 247.2882897 128.03988647 242.15335083 C128.54964093 233.54451403 129.0551408 224.93543642 129.55761719 216.32617188 C130.26652408 204.18021067 130.9835635 192.03473917 131.7020123 179.88933921 C132.1998677 171.46793755 132.695784 163.04642153 133.19133711 154.62488413 C133.31139476 152.5847665 133.43150738 150.54465211 133.55167437 148.50454092 C133.89364508 142.69768392 134.23440918 136.89075874 134.57320213 131.08371544 C134.67600517 129.3244476 134.77920212 127.56520273 134.88281822 125.80598259 C135.02394305 123.40846813 135.16361319 121.01087333 135.30288696 118.61325073 C135.34432315 117.91462634 135.38575935 117.21600195 135.42845118 116.49620712 C135.6074798 113.38836127 135.70703125 110.31832921 135.70703125 107.203125 C137.19976562 107.38488281 137.19976562 107.38488281 138.72265625 107.5703125 C142.53711192 108.03051021 146.35326097 108.47484389 150.17041016 108.91210938 C151.84221483 109.10390833 153.51377329 109.29786751 155.18505859 109.49414062 C164.25965798 110.54845093 173.31819108 111.40794888 182.45703125 111.578125 C183.17109131 111.60406738 183.88515137 111.63000977 184.62084961 111.65673828 C191.06155114 111.6795211 196.0402071 109.49234573 200.9140625 105.30859375 C207.79276412 97.09097211 210.60740881 88.95763471 209.70703125 78.203125 C207.9123214 67.7846822 203.42104984 58.38921215 194.97949219 51.77978516 C186.65471357 46.00395573 176.95688496 45.10723932 167.14453125 44.078125 C166.03481461 43.95588562 166.03481461 43.95588562 164.90267944 43.83117676 C129.0888295 39.88661511 93.24556602 39.10584347 57.26953125 41.078125 Z M-197.29296875 51.203125 C-200.78450286 57.02234852 -200.9795924 62.51541062 -200.29296875 69.203125 C-199.13203705 73.56911354 -197.47255456 77.66445264 -195.73046875 81.828125 C-195.24666748 83.02018555 -194.76286621 84.21224609 -194.2644043 85.44042969 C-185.82156884 106.08194489 -176.37064797 126.31474678 -166.29296875 146.203125 C-165.63296875 146.203125 -164.97296875 146.203125 -164.29296875 146.203125 C-164.29296875 146.863125 -164.29296875 147.523125 -164.29296875 148.203125 C-163.63296875 148.203125 -162.97296875 148.203125 -162.29296875 148.203125 C-162.29296875 148.863125 -162.29296875 149.523125 -162.29296875 150.203125 C-155.65703601 153.92572142 -149.92249511 154.93120095 -142.5703125 153.05859375 C-137.39328514 151.1138785 -133.56982345 147.91889851 -130.29296875 143.515625 C-127.43435792 134.04647664 -129.7586162 126.73112409 -134.23046875 118.265625 C-135.2378892 116.26673835 -136.24305303 114.26671298 -137.24609375 112.265625 C-137.75462891 111.26402344 -138.26316406 110.26242188 -138.78710938 109.23046875 C-141.15512644 104.46986376 -143.32284165 99.6243632 -145.48046875 94.765625 C-145.8664624 93.90138916 -146.25245605 93.03715332 -146.65014648 92.14672852 C-147.53370871 90.16669506 -148.41377792 88.18510335 -149.29296875 86.203125 C-146.37621032 86.17471502 -143.45981733 86.15405456 -140.54296875 86.140625 C-139.16081177 86.13349487 -139.16081177 86.13349487 -137.75073242 86.1262207 C-132.16136199 86.12391695 -126.59857578 86.25686003 -121.015625 86.53125 C-119.17145996 86.61838257 -119.17145996 86.61838257 -117.29003906 86.70727539 C-114.88105788 86.82714982 -112.47272802 86.96116741 -110.06542969 87.11108398 C-102.06804762 87.5011024 -94.48198034 87.35159685 -87.85546875 82.37109375 C-83.07228901 76.30841344 -80.7696707 71.33368995 -80.98046875 63.5078125 C-81.69939078 58.20576256 -84.18349028 53.92414816 -88.10546875 50.328125 C-93.4821057 46.74370036 -98.89310507 45.96431941 -105.25952148 45.70068359 C-105.91759293 45.67113083 -106.57566437 45.64157806 -107.25367737 45.61112976 C-109.4110449 45.51637658 -111.56868294 45.43375616 -113.7265625 45.3515625 C-115.24767227 45.28780603 -116.76875459 45.22339176 -118.28981018 45.15835571 C-121.47614001 45.02386472 -124.66262807 44.8949678 -127.84936523 44.77050781 C-131.88692227 44.61271266 -135.92396937 44.44476575 -139.96095181 44.27295494 C-143.10543832 44.1396729 -146.25006984 44.01012365 -149.39476204 43.88179398 C-150.88038001 43.82108648 -152.36597077 43.75970858 -153.85153008 43.69758224 C-157.98010038 43.52676682 -162.10845891 43.37667268 -166.23896408 43.26110077 C-167.64438497 43.22143175 -169.04969558 43.17770462 -170.45488358 43.13050079 C-172.60148282 43.06302919 -174.74749221 43.01815952 -176.89477539 42.97900391 C-178.14851456 42.94948639 -179.40225372 42.91996887 -180.69398499 42.88955688 C-187.44379657 43.4776467 -192.48997907 46.40013532 -197.29296875 51.203125 Z M-108.52734375 147.98828125 C-110.50075164 149.99169237 -110.50075164 149.99169237 -110.29296875 152.203125 C-111.77796875 152.698125 -111.77796875 152.698125 -113.29296875 153.203125 C-114.68630767 155.16179405 -116.01084961 157.16991368 -117.29296875 159.203125 C-118.789517 161.24732316 -120.28978286 163.28880282 -121.79296875 165.328125 C-127.69795608 173.47154574 -132.77399916 182.09621388 -137.85424805 190.76904297 C-138.82479436 192.41104988 -139.80838232 194.04540854 -140.80395508 195.67236328 C-173.96140674 249.8778657 -187.23982829 316.37661233 -198.41796875 378.140625 C-198.64361008 379.37664459 -198.64361008 379.37664459 -198.87380981 380.63763428 C-199.29476182 382.95894328 -199.70610994 385.28170717 -200.11328125 387.60546875 C-200.23461929 388.27630997 -200.35595734 388.94715118 -200.48097229 389.63832092 C-202.01822732 398.63401165 -201.5822077 407.40210358 -197.00390625 415.4765625 C-190.64008998 424.3586804 -182.10654159 430.58032731 -171.34765625 432.8828125 C-162.66466662 434.23643446 -154.46930349 432.89640635 -147.1796875 427.6953125 C-139.10223907 420.25783322 -137.40221231 410.19616823 -135.56640625 399.8046875 C-135.33265289 398.53394379 -135.09889954 397.26320007 -134.85806274 395.95394897 C-134.24059556 392.59644626 -133.63666385 389.23665097 -133.03570557 385.87615967 C-132.42655937 382.48364506 -131.80453159 379.09349741 -131.18359375 375.703125 C-130.06931873 369.60885361 -128.96734438 363.51242723 -127.87127686 357.41485596 C-127.01807862 352.67647658 -126.15618845 347.93968755 -125.29296875 343.203125 C-124.00946533 343.26371094 -122.72596191 343.32429687 -121.40356445 343.38671875 C-116.53366749 343.61527496 -111.66348958 343.83731388 -106.79321289 344.05761719 C-104.70556891 344.15290981 -102.61799944 344.24985241 -100.53051758 344.34863281 C-86.43963542 345.01396958 -72.39952964 345.3357626 -58.29296875 345.203125 C-58.30336182 346.47704102 -58.31375488 347.75095703 -58.32446289 349.06347656 C-58.40272177 359.7797815 -58.25796734 370.48888061 -57.97457886 381.20120239 C-57.93718369 382.64747823 -57.90272437 384.09383331 -57.87136841 385.54025269 C-57.65697102 403.7134048 -57.65697102 403.7134048 -49.3828125 419.3359375 C-42.10336108 426.29442546 -33.47667955 430.35537317 -23.29296875 430.203125 C-14.20488389 429.35681337 -5.93923493 426.66976237 0.70703125 420.203125 C7.6244754 411.01338088 7.99797911 402.75484138 7.86865234 391.53198242 C7.85985884 390.19039646 7.8517035 388.84880617 7.84415245 387.50721264 C7.75240784 373.98277702 7.4567937 360.46166207 7.12109375 346.94140625 C7.05842158 344.32635474 6.99595753 341.71129824 6.9336853 339.09623718 C6.80345019 333.65173879 6.67021031 328.20732029 6.53515625 322.76293945 C6.39974279 317.30240874 6.26786825 311.84180786 6.13964844 306.38110352 C5.48506601 278.52711126 4.76578633 250.67742952 3.69140625 222.8359375 C3.65219685 221.79728861 3.61298744 220.75863972 3.57258987 219.68851662 C2.70187114 163.49223023 2.70187114 163.49223023 -22.29296875 115.203125 C-51.31128616 91.62227433 -89.41114014 127.03860528 -108.52734375 147.98828125 Z M3.70703125 121.203125 C4.79439832 124.50147177 5.91012779 127.78670702 7.07421875 131.05859375 C16.1862305 156.99486506 18.57580341 183.54829144 19.69140625 210.859375 C19.75404222 212.3579668 19.75404222 212.3579668 19.81794357 213.88683319 C20.86589166 239.13113146 21.52330497 264.38610696 22.13964844 289.64404297 C22.26667204 294.84307108 22.39855857 300.04193733 22.53515625 305.24072266 C23.22004113 331.33234382 23.83953488 357.42626689 23.96284103 383.52754974 C23.97443477 385.72916493 23.99080155 387.93076106 24.01234818 390.13230133 C24.03978588 393.15705682 24.04703097 396.18118919 24.04833984 399.20605469 C24.05944668 400.07693474 24.07055351 400.94781479 24.08199692 401.84508514 C24.02078851 414.04444927 19.54568825 423.88827893 11.28125 432.73828125 C1.55163681 442.05449661 -10.29946542 446.23088487 -23.66796875 446.765625 C-38.42586287 446.30539961 -52.37546232 440.66651459 -62.66796875 429.953125 C-71.14801328 419.73536643 -73.44318438 407.82747149 -73.92578125 394.91796875 C-73.96734344 393.97627335 -74.00890564 393.03457794 -74.05172729 392.06434631 C-74.18129569 389.09003625 -74.29981655 386.11540817 -74.41796875 383.140625 C-74.50447506 381.10999467 -74.59170771 379.07939515 -74.6796875 377.04882812 C-74.89250942 372.10057673 -75.09543259 367.15200921 -75.29296875 362.203125 C-83.56669231 361.38002128 -91.73123147 361.07392587 -100.04296875 361.140625 C-101.67878906 361.14739258 -101.67878906 361.14739258 -103.34765625 361.15429688 C-105.99615491 361.1659131 -108.64452976 361.18224332 -111.29296875 361.203125 C-113.47622679 370.02263686 -115.48884786 378.84080218 -117.07421875 387.7890625 C-117.21674072 388.59176575 -117.3592627 389.39446899 -117.50610352 390.22149658 C-118.08486296 393.50367186 -118.65739345 396.78683007 -119.22021484 400.07177734 C-121.41056131 412.79177111 -123.758232 424.42598105 -131.29296875 435.203125 C-85.59875285 471.98139634 -23.49337437 489.24035873 34.70703125 483.203125 C75.18109186 478.22587887 113.32648932 464.84485759 146.70703125 441.203125 C147.27019043 440.80754395 147.83334961 440.41196289 148.41357422 440.00439453 C153.1278072 436.69436204 153.1278072 436.69436204 157.70703125 433.203125 C157.70703125 432.873125 157.70703125 432.543125 157.70703125 432.203125 C157.1256691 432.18473068 156.54430695 432.16633636 155.94532776 432.14738464 C149.86079006 431.9522154 143.77711952 431.73815904 137.69360352 431.51342773 C135.42716858 431.43214312 133.1605591 431.35557612 130.89379883 431.28393555 C127.62393127 431.17975387 124.35508007 431.05827325 121.0859375 430.93359375 C120.08244766 430.90533005 119.07895782 430.87706635 118.0450592 430.84794617 C109.50187666 430.49374407 101.67410084 429.10538622 95.27734375 423.05078125 C89.36259606 416.09138906 87.30816941 408.22879867 87.70703125 399.203125 C88.71400804 392.45719921 90.26201105 386.51245468 94.70703125 381.203125 C95.18914062 380.61917969 95.67125 380.03523438 96.16796875 379.43359375 C101.43832971 373.55701757 107.38466906 370.70611471 115.23583984 369.79248047 C119.10469013 369.58969591 122.95818895 369.49539907 126.83203125 369.453125 C128.18363081 369.42489909 129.53519577 369.39496267 130.88671875 369.36328125 C134.16021487 369.2931349 137.43302144 369.24016275 140.70703125 369.203125 C139.37289073 365.7969546 137.93701928 362.4651636 136.39453125 359.1484375 C135.95882813 358.20355469 135.523125 357.25867188 135.07421875 356.28515625 C134.16573533 354.32023639 133.25429442 352.35668113 132.33984375 350.39453125 C130.03442218 345.38126245 128.02174117 340.5665439 126.70703125 335.203125 C126.18496094 335.56664062 125.66289062 335.93015625 125.125 336.3046875 C110.99423317 345.95617447 99.11067267 350.75468487 81.70703125 349.203125 C68.43823487 346.42911299 56.52285393 341.43752752 48.83203125 329.828125 C39.52903667 314.15085636 41.57660788 297.43377685 42.625 279.93823242 C42.72384498 278.24177402 42.82235633 276.54529615 42.92056274 274.84880066 C43.18577794 270.28339816 43.45560848 265.71827922 43.72632217 261.15319991 C44.00931594 256.36745446 44.28798984 251.58145743 44.56713867 246.79548645 C45.09535082 237.750502 45.62739996 228.70574758 46.1608572 219.66107112 C46.76843808 209.35642507 47.37169661 199.05152736 47.97460747 188.74660718 C49.21396834 167.56516466 50.45870725 146.38404105 51.70703125 125.203125 C50.09896278 125.197204 48.49088803 125.19296922 46.8828125 125.18945312 C45.98731689 125.18691528 45.09182129 125.18437744 44.16918945 125.1817627 C41.6491982 125.20362677 39.20611309 125.38181448 36.70703125 125.703125 C24.88157723 126.9556653 14.92240969 125.25312277 3.70703125 121.203125 Z M197.78515625 126.01171875 C187.37244815 130.04201821 175.88567134 128.29039752 165.0637207 126.91479492 C164.34015381 126.82431885 163.61658691 126.73384277 162.87109375 126.640625 C162.2363916 126.55683594 161.60168945 126.47304687 160.94775391 126.38671875 C157.86490317 126.13412518 154.79848473 126.17703285 151.70703125 126.203125 C148.99317584 165.86577249 146.57285204 205.54548036 144.19859695 245.22967911 C143.99679671 248.60223143 143.79459708 251.97475968 143.59227902 255.34728098 C143.16497339 262.47040339 142.73916421 269.59361384 142.31497765 276.71692276 C142.17087509 279.13476842 142.02641012 281.5525925 141.88157082 283.97039413 C141.68192752 287.30579694 141.48381062 290.64128685 141.28613281 293.97680664 C141.22695395 294.96074496 141.1677751 295.94468328 141.10680294 296.95843792 C141.05369237 297.86012109 141.0005818 298.76180426 140.94586182 299.69081116 C140.89943668 300.47069428 140.85301155 301.25057741 140.8051796 302.05409336 C140.71165443 304.10189708 140.70703125 306.1531867 140.70703125 308.203125 C141.32191406 307.99816406 141.93679688 307.79320312 142.5703125 307.58203125 C153.17261609 304.04793005 162.86609753 302.00645081 173.4921875 306.94921875 C180.6561997 311.00503518 184.13487132 315.91384793 187.70703125 323.203125 C188.24457031 324.255 188.78210938 325.306875 189.3359375 326.390625 C192.65497428 332.91108437 195.84876073 339.48530278 198.97265625 346.1015625 C199.8442895 347.93964243 200.71643141 349.77748039 201.58862305 351.61529541 C202.44508225 353.4278371 203.29194907 355.24490131 204.13867188 357.06201172 C204.67169922 358.18623535 205.20472656 359.31045898 205.75390625 360.46875 C206.46305176 361.98130371 206.46305176 361.98130371 207.18652344 363.52441406 C208.73281372 366.24854652 210.39337796 368.11100494 212.70703125 370.203125 C244.19075161 312.84026941 254.53767456 248.6965823 236.578125 185.14501953 C230.06890594 163.16181054 220.62632124 141.22152167 207.70703125 122.203125 C204.51649782 122.203125 200.67677815 124.76176889 197.78515625 126.01171875 Z M-188.29296875 129.203125 C-203.77505805 155.06285454 -213.94751503 182.50083903 -219.29296875 212.203125 C-219.52628906 213.48445313 -219.75960937 214.76578125 -220 216.0859375 C-226.10741295 255.36670857 -220.75955634 296.02104245 -207.29296875 333.203125 C-206.96296875 333.203125 -206.63296875 333.203125 -206.29296875 333.203125 C-206.06222656 332.19338623 -205.83148438 331.18364746 -205.59375 330.14331055 C-200.80975095 309.27778658 -195.78278851 288.61570917 -189.29296875 268.203125 C-188.9479834 267.10000977 -188.60299805 265.99689453 -188.24755859 264.86035156 C-182.90625065 247.85706581 -176.56542984 231.47061186 -169.29296875 215.203125 C-168.69645508 213.84743408 -168.69645508 213.84743408 -168.08789062 212.46435547 C-162.46689429 199.76004775 -155.75979067 187.85806259 -148.56176758 175.99829102 C-147.8942749 174.89799561 -147.22678223 173.7977002 -146.5390625 172.6640625 C-145.63692017 171.19138916 -145.63692017 171.19138916 -144.71655273 169.68896484 C-143.18202837 167.19870153 -143.18202837 167.19870153 -142.29296875 164.203125 C-142.93621094 164.24953125 -143.57945312 164.2959375 -144.2421875 164.34375 C-154.16158937 164.73996006 -164.0007578 163.01579381 -171.55273438 156.19189453 C-175.10502187 152.13227978 -177.30650776 147.26572271 -179.66796875 142.453125 C-180.20035156 141.39996094 -180.73273438 140.34679687 -181.28125 139.26171875 C-182.63296184 136.58237137 -183.96779785 133.89566596 -185.29296875 131.203125 C-185.78796875 130.213125 -185.78796875 130.213125 -186.29296875 129.203125 C-186.95296875 129.203125 -187.61296875 129.203125 -188.29296875 129.203125 Z M142.70703125 320.515625 C139.51384878 324.12301746 137.64572298 327.21642167 137.74772644 332.18563843 C138.26739517 337.93666039 139.78003854 342.36835212 142.3828125 347.4921875 C142.74924362 348.23971283 143.11567474 348.98723816 143.49320984 349.75741577 C144.65591821 352.12086654 145.83752917 354.47427508 147.01953125 356.828125 C147.80134101 358.41346597 148.58195033 359.99939953 149.36132812 361.5859375 C152.64325057 368.23391307 155.97624458 374.7936241 159.70703125 381.203125 C158.96291992 381.13528809 158.21880859 381.06745117 157.45214844 380.99755859 C149.00445994 380.28176209 140.59564405 379.92417331 132.12158203 379.85302734 C130.67122493 379.83634153 129.22095412 379.80888868 127.77099609 379.77099609 C119.16757567 379.54910927 111.71152064 379.4657182 104.70703125 385.203125 C99.33175653 390.43974536 97.93749705 396.81861659 97.70703125 404.203125 C98.35124937 409.07136418 99.85090351 412.81078874 103.51953125 416.140625 C108.58258114 419.41671611 113.10282698 420.44179453 119.08520508 420.64550781 C120.33123001 420.69185364 121.57725494 420.73819946 122.86103821 420.78594971 C124.21202936 420.82661654 125.56303815 420.8667012 126.9140625 420.90625 C128.32209139 420.95260121 129.73010619 420.99938238 131.1381073 421.04656982 C134.09085838 421.14328443 137.04372293 421.23310179 139.99682617 421.31835938 C142.99268515 421.40546991 145.98793885 421.50240889 148.9831543 421.609375 C176.39076497 424.36344257 176.39076497 424.36344257 201.26953125 416.546875 C206.31355509 411.83180924 209.4677147 406.64757516 209.84375 399.6640625 C209.22984789 387.49126061 202.49856863 376.52971701 197.08203125 365.890625 C195.83673252 363.43125099 194.59513706 360.97002897 193.35546875 358.5078125 C193.04671814 357.89486832 192.73796753 357.28192413 192.41986084 356.65040588 C188.9564924 349.74875676 185.66226672 342.76572898 182.43505859 335.75073242 C176.82528938 323.46172893 176.82528938 323.46172893 166.70703125 315.203125 C157.97496675 313.03526871 149.4067538 314.25977641 142.70703125 320.515625 Z " fill="#FEFEFE" transform="translate(238.29296875,-0.203125)"/>
<path d="M0 0 C1.33577367 27.34961054 2.35230064 54.61540047 2 82 C-8.09112733 82.04846326 -18.16261025 81.93859761 -28.25 81.625 C-29.54035156 81.5940625 -30.83070313 81.563125 -32.16015625 81.53125 C-34.00673828 81.47324219 -34.00673828 81.47324219 -35.890625 81.4140625 C-36.99438477 81.3826416 -38.09814453 81.3512207 -39.23535156 81.31884766 C-42 81 -42 81 -45 79 C-40.07904979 65.87465254 -34.80229814 53.06118083 -28.3125 40.625 C-27.79083252 39.623479 -27.26916504 38.62195801 -26.73168945 37.59008789 C-21.59386945 27.92795502 -15.76943577 18.78545049 -9.25 10 C-8.78207031 9.35933594 -8.31414062 8.71867188 -7.83203125 8.05859375 C-1.8932346 0 -1.8932346 0 0 0 Z M-16 56 C-18.2013866 59.80427492 -18.2013866 59.80427492 -19 64 C-17.68 64 -16.36 64 -15 64 C-15 61.36 -15 58.72 -15 56 C-15.33 56 -15.66 56 -16 56 Z " fill="#FEFEFE" transform="translate(176,198)"/>
</svg>
