<?xml version="1.0" encoding="UTF-8"?>
<svg version="1.1" xmlns="http://www.w3.org/2000/svg" width="500" height="500">
<path d="M0 0 C0.91909149 0.00215515 1.83818298 0.0043103 2.78512573 0.00653076 C33.0945923 0.12025248 66.82757745 3.79897897 94.27392578 17.7902832 C105.47815407 23.32834429 116.56665218 23.75366307 128.875 24.5 C132.99036425 24.77437921 137.10469205 25.06219269 141.21875 25.35546875 C142.22674149 25.42637726 143.23473297 25.49728577 144.27326965 25.57034302 C151.3533948 26.09410759 158.38161933 26.84148538 165.41796875 27.78515625 C166.30718018 27.90231491 167.1963916 28.01947357 168.11254883 28.1401825 C179.65871886 29.77157126 189.79371586 33.11371496 198.375 41.3125 C199.40367187 42.28123047 199.40367187 42.28123047 200.453125 43.26953125 C211.03073106 54.14993137 215.74161943 67.75053699 215.6875 82.6875 C215.70361328 83.56921875 215.71972656 84.4509375 215.73632812 85.359375 C215.74196972 93.05451489 214.27047307 99.84835957 210.5625 106.625 C209.08200905 109.19334282 209.08200905 109.19334282 210.0234375 111.51953125 C211.38117095 114.32525212 212.9164636 116.97086604 214.54736328 119.62573242 C233.2783206 150.15119259 244.82472631 183.8339605 249.375 219.3125 C249.46232895 219.98437347 249.5496579 220.65624695 249.63963318 221.34848022 C250.31555995 226.92703646 250.54894817 232.42651281 250.578125 238.04296875 C250.58513931 238.947659 250.59215363 239.85234924 250.59938049 240.78445435 C250.6168005 243.68968735 250.62323321 246.59471668 250.625 249.5 C250.62567474 250.49148041 250.62634949 251.48296082 250.62704468 252.50448608 C250.61169249 266.6739795 250.21256564 280.38999536 247.375 294.3125 C247.0311632 296.16795267 246.6874171 298.02342214 246.34375 299.87890625 C241.50333359 324.83506533 232.39715457 347.88510151 220.75 370.375 C220.3068042 371.23182373 219.8636084 372.08864746 219.40698242 372.97143555 C217.1820754 377.18399745 214.85472386 381.07925523 212.05078125 384.93359375 C209.02525677 389.37392132 208.79078642 391.98066942 209.1875 397.3125 C209.59920621 406.68807427 208.054065 413.11671031 202.09375 420.46484375 C196.10950287 426.89790942 187.98703978 431.89512872 179.0234375 432.4609375 C178.29382813 432.47382813 177.56421875 432.48671875 176.8125 432.5 C171.54882918 432.93478476 169.00331698 435.96547687 165.33984375 439.52734375 C122.48905575 480.80153212 59.19863502 500.87307124 0.75 500.625 C-0.16909149 500.62284485 -1.08818298 500.6206897 -2.03512573 500.61846924 C-40.21132518 500.47523139 -76.25718959 492.00461598 -110.625 475.3125 C-111.34606934 474.96493652 -112.06713867 474.61737305 -112.81005859 474.25927734 C-126.53728793 467.55942277 -140.53156676 459.46136864 -152.05859375 449.38671875 C-154.44791513 446.99927877 -154.44791513 446.99927877 -157.5 447.375 C-159.67130766 448.0263923 -161.83770792 448.69427842 -164 449.375 C-177.96495121 452.8662378 -192.4881151 449.89268079 -204.9375 443.125 C-216.32049518 435.98035409 -224.4085125 425.93020081 -228.5625 413.0625 C-230.76041599 403.2340832 -230.29475251 394.07872695 -228.18359375 384.31640625 C-224.78996059 368.3748858 -223.96688264 358.14473418 -232.3515625 343.69873047 C-234.54594655 339.58678459 -235.95327249 335.23957443 -237.375 330.8125 C-237.65730469 329.94052979 -237.93960938 329.06855957 -238.23046875 328.17016602 C-245.00330943 306.75264724 -249.70337959 284.49193984 -249.828125 261.95703125 C-249.83513931 261.10092758 -249.84215363 260.24482391 -249.84938049 259.36277771 C-249.866773 256.61679754 -249.87323242 253.87103323 -249.875 251.125 C-249.87567474 250.18531372 -249.87634949 249.24562744 -249.87704468 248.27746582 C-249.86086035 234.09031552 -249.40466127 220.2672598 -246.625 206.3125 C-246.44807617 205.40773926 -246.27115234 204.50297852 -246.08886719 203.57080078 C-239.84160805 172.44779736 -229.26340097 138.92432327 -209.63549805 113.48925781 C-207.72417451 109.37199261 -209.42970228 105.84738972 -210.91601562 101.77661133 C-211.44917615 100.48041233 -211.98786525 99.18647745 -212.53125 97.89453125 C-213.11638459 96.46049004 -213.70100353 95.02623833 -214.28515625 93.59179688 C-215.20072539 91.36251068 -216.12067948 89.13533391 -217.05029297 86.91186523 C-221.75211074 75.62674948 -226.20307984 64.45071168 -221.625 52.3125 C-217.02608079 42.67527438 -211.3716401 36.97238879 -201.43945312 33.1328125 C-196.62637137 31.72997118 -191.97570639 31.85475847 -187 32 C-185.91533447 32.01546875 -184.83066895 32.0309375 -183.71313477 32.046875 C-177.31297475 32.15804518 -170.91837653 32.40029505 -164.52368164 32.68212891 C-162.54263413 32.76934792 -160.56133476 32.85101581 -158.57983398 32.92724609 C-153.57103723 33.12135693 -148.58975523 33.39117992 -143.59375 33.80078125 C-128.09189965 34.79535789 -118.68928308 30.60512106 -105.47509766 22.88574219 C-74.02007111 5.52269687 -35.44667574 -0.15044493 0 0 Z M-91.625 35.3125 C-93.29122771 35.98026301 -94.95763592 36.64757951 -96.625 37.3125 C-96.625 37.9725 -96.625 38.6325 -96.625 39.3125 C-95.87605469 39.75078125 -95.12710938 40.1890625 -94.35546875 40.640625 C-88.94028014 43.95636281 -85.71234259 49.85416023 -83.1875 55.5625 C-81.4305104 67.27576398 -82.03537645 77.64237141 -89.19921875 87.47265625 C-94.72903606 93.54385427 -101.60938426 96.24518908 -109.625 97.3125 C-112.3146447 97.32787039 -114.96407205 97.29322727 -117.6484375 97.19140625 C-118.39461334 97.16779526 -119.14078918 97.14418427 -119.90957642 97.11985779 C-122.27327278 97.04379587 -124.63659277 96.95952781 -127 96.875 C-128.61065918 96.82172161 -130.22133627 96.76898169 -131.83203125 96.71679688 C-135.76325538 96.5882595 -139.69416328 96.45236598 -143.625 96.3125 C-142.42263784 100.08900558 -141.08621788 103.65035754 -139.34765625 107.2109375 C-138.70086914 108.54898438 -138.70086914 108.54898438 -138.04101562 109.9140625 C-137.59435547 110.82929687 -137.14769531 111.74453125 -136.6875 112.6875 C-133.69712953 118.81623599 -130.90646332 124.88223705 -128.625 131.3125 C-124.8142019 128.10796523 -121.11563993 124.83889512 -117.50170898 121.41259766 C-99.79002216 104.75192135 -76.67076526 90.78149438 -51.625 91.3125 C-43.95940793 91.92574737 -37.44063664 93.79475206 -30.625 97.3125 C-29.8825 97.68375 -29.14 98.055 -28.375 98.4375 C-27.7975 98.72625 -27.22 99.015 -26.625 99.3125 C-26.769375 98.59707031 -26.91375 97.88164063 -27.0625 97.14453125 C-30.25180083 80.02418721 -29.14684691 63.33493243 -19.625 48.3125 C-11.58222013 37.38498038 -1.0161305 30.24188763 12.3203125 27.765625 C22.27515947 26.26899653 32.31578666 25.6857863 42.35888672 25.09741211 C43.49471191 25.02401611 44.63053711 24.95062012 45.80078125 24.875 C47.33859253 24.78412109 47.33859253 24.78412109 48.9074707 24.69140625 C51.54673347 24.53516085 51.54673347 24.53516085 53.375 22.3125 C49.89680095 21.66138403 46.41728298 21.01759251 42.9375 20.375 C41.96361328 20.19259766 40.98972656 20.01019531 39.98632812 19.82226562 C-4.66681204 11.6084773 -49.89075946 18.10995178 -91.625 35.3125 Z M45.9375 41.1875 C44.84760269 41.24617249 44.84760269 41.24617249 43.73568726 41.30603027 C18.24342949 42.01766148 18.24342949 42.01766148 -3.0625 54.4375 C-9.84541758 62.84549158 -13.45301103 73.08257218 -12.3671875 83.875 C-10.99105325 92.08176423 -8.1037176 98.88845736 -1.625 104.3125 C10.00978137 111.91491785 24.2183687 109.42156954 37.53149414 108.51293945 C39.59939492 108.37249421 41.66775618 108.24147729 43.73632812 108.11132812 C45.06774421 108.02398269 46.39912601 107.93611257 47.73046875 107.84765625 C48.91278076 107.769104 50.09509277 107.69055176 51.31323242 107.60961914 C53.80569817 107.36774602 55.9711842 106.95235617 58.375 106.3125 C58.33046 107.04906515 58.28591999 107.7856303 58.24003029 108.54451561 C57.14578924 126.64047417 56.05186078 144.7364516 54.95826149 162.83244896 C54.42935348 171.5842718 53.90034759 180.33608869 53.37109375 189.08789062 C52.90867881 196.73444146 52.44646532 204.38100444 51.98447359 212.02758086 C51.74086263 216.05955752 51.49716458 220.09152887 51.25322342 224.12348557 C50.75748948 232.31799951 50.26291188 240.51258072 49.77147663 248.70735371 C49.54616778 252.46433853 49.32022748 256.22128344 49.09307098 259.97815704 C48.8590564 263.84965119 48.62681783 267.72124844 48.39575076 271.59291959 C48.30910486 273.04012677 48.2218872 274.48729986 48.13402486 275.9344337 C45.22732956 300.22216136 45.22732956 300.22216136 52.91796875 322.3125 C59.81472968 329.88788958 68.28804063 332.68606019 78.375 333.3125 C87.53587509 332.82508645 96.37605177 329.29110043 103.375 323.3125 C103.375 322.6525 103.375 321.9925 103.375 321.3125 C104.035 321.3125 104.695 321.3125 105.375 321.3125 C106.17331456 319.94134903 106.9633061 318.56535116 107.75 317.1875 C108.19085938 316.42179687 108.63171875 315.65609375 109.0859375 314.8671875 C112.38982865 308.31947595 112.88994658 302.1161887 113.35107422 294.90625 C113.43183638 293.73324341 113.51259853 292.56023682 113.59580803 291.35168457 C113.86703894 287.33928343 114.12359026 283.3261804 114.375 279.3125 C114.4426366 278.2386908 114.4426366 278.2386908 114.5116396 277.14318848 C115.23650346 265.61309615 115.92030322 254.08064137 116.5970788 242.54764175 C116.87063749 237.89260182 117.14639307 233.23769192 117.42184448 228.58276367 C117.8820374 220.80053555 118.34071214 213.01821921 118.79833984 205.23583984 C119.32717798 196.24263482 119.85806924 187.24955284 120.39010537 178.25653648 C120.95937396 168.63396677 121.52729734 159.01131803 122.0947547 149.38864136 C122.25771828 146.62659688 122.42092084 143.8645666 122.5841713 141.10253906 C122.83948314 136.78165739 123.09388544 132.46072309 123.34757233 128.13974571 C123.44079603 126.55420852 123.53432003 124.96868895 123.62816238 123.38318825 C123.75586695 121.22466293 123.88248716 119.0660767 124.00881958 116.9074707 C124.11553828 115.09482475 124.11553828 115.09482475 124.22441292 113.24555969 C124.32584901 111.26983844 124.375 109.29082347 124.375 107.3125 C125.17083496 107.39814209 125.96666992 107.48378418 126.78662109 107.57202148 C130.44103966 107.96506389 134.09551929 108.35753579 137.75 108.75 C139.62751953 108.95206055 139.62751953 108.95206055 141.54296875 109.15820312 C145.15335966 109.54570581 148.76414738 109.92932749 152.375 110.3125 C153.3129541 110.41473877 154.2509082 110.51697754 155.21728516 110.62231445 C171.00756391 112.7950252 171.00756391 112.7950252 185.73828125 108.70703125 C193.24775374 102.30874562 197.52704019 95.35115904 198.5703125 85.4609375 C199.14094809 74.9992851 195.28558791 64.1577794 188.375 56.3125 C178.79107799 47.20866313 168.61682996 45.63888754 155.9375 44.25 C155.19269379 44.16600952 154.44788757 44.08201904 153.68051147 43.9954834 C117.83509148 39.9733035 81.9520178 39.21310875 45.9375 41.1875 Z M-207.625 50.3125 C-211.92764203 56.24620894 -212.54852801 62.15934596 -211.625 69.3125 C-210.06037387 74.51880895 -207.96666807 79.45657572 -205.8125 84.4375 C-205.21706746 85.85160874 -204.62309222 87.26633192 -204.03051758 88.68164062 C-202.53671289 92.23356444 -201.01838785 95.77431605 -199.48925781 99.31115723 C-198.67469177 101.19742986 -197.86643591 103.08642387 -197.05859375 104.97558594 C-192.65925964 115.25536331 -188.15584175 125.48060927 -183.1875 135.5 C-182.88158936 136.11746094 -182.57567871 136.73492187 -182.26049805 137.37109375 C-180.29825908 141.23144978 -178.19561597 144.83398681 -175.625 148.3125 C-174.965 148.3125 -174.305 148.3125 -173.625 148.3125 C-173.625 148.9725 -173.625 149.6325 -173.625 150.3125 C-167.81709064 154.29506642 -161.4600008 154.19820915 -154.625 153.3125 C-148.46438569 151.00965056 -143.55897725 146.1804545 -140.625 140.3125 C-139.58118172 131.78062437 -141.6213413 125.83586214 -145.5625 118.375 C-146.56992045 116.37611335 -147.57508428 114.37608798 -148.578125 112.375 C-149.08666016 111.37339844 -149.59519531 110.37179688 -150.11914062 109.33984375 C-152.48715769 104.57923876 -154.6548729 99.7337382 -156.8125 94.875 C-157.19849365 94.01076416 -157.5844873 93.14652832 -157.98217773 92.25610352 C-158.86573996 90.27607006 -159.74580917 88.29447835 -160.625 86.3125 C-157.333353 86.28175021 -154.0417617 86.26358801 -150.75 86.25 C-149.72946533 86.24524658 -148.70893066 86.24049316 -147.6574707 86.2355957 C-141.97982965 86.2334459 -136.33054772 86.34506866 -130.66015625 86.640625 C-129.51724121 86.69871338 -128.37432617 86.75680176 -127.19677734 86.81665039 C-124.99180313 86.93610903 -122.78754858 87.06999933 -120.58447266 87.22045898 C-113.37747971 87.60648716 -105.50636997 87.59482884 -99.71411133 82.6965332 C-95.25205611 77.92050001 -92.53705702 72.44892727 -92.1875 65.875 C-92.40512313 60.3208792 -94.31359249 55.93698 -97.98046875 51.7734375 C-103.29950213 46.89646856 -109.63282674 46.09822218 -116.59155273 45.81005859 C-117.24962418 45.78050583 -117.90769562 45.75095306 -118.58570862 45.72050476 C-120.74307615 45.62575158 -122.90071419 45.54313116 -125.05859375 45.4609375 C-126.57970352 45.39718103 -128.10078584 45.33276676 -129.62184143 45.26773071 C-132.80817126 45.13323972 -135.99465932 45.0043428 -139.18139648 44.87988281 C-143.21895352 44.72208766 -147.25600062 44.55414075 -151.29298306 44.38232994 C-154.43746957 44.2490479 -157.58210109 44.11949865 -160.72679329 43.99116898 C-162.21241126 43.93046148 -163.69800202 43.86908358 -165.18356133 43.80695724 C-169.31213163 43.63614182 -173.44049016 43.48604768 -177.57099533 43.37047577 C-178.97641622 43.33080675 -180.38172683 43.28707962 -181.78691483 43.23987579 C-183.93351407 43.17240419 -186.07952346 43.12753452 -188.22680664 43.08837891 C-189.48054581 43.05886139 -190.73428497 43.02934387 -192.02601624 42.99893188 C-198.13171712 43.53090236 -203.25604522 45.94354522 -207.625 50.3125 Z M-121.625 150.3125 C-125.07510804 154.55949024 -128.36721425 158.91698668 -131.625 163.3125 C-132.20636719 164.0859375 -132.78773438 164.859375 -133.38671875 165.65625 C-142.16774783 177.73282269 -149.77036694 191.06020942 -156.625 204.3125 C-157.2128125 205.4365625 -157.800625 206.560625 -158.40625 207.71875 C-168.64145953 227.55899214 -176.72287207 248.09916247 -183.625 269.3125 C-183.97304687 270.37871582 -184.32109375 271.44493164 -184.6796875 272.54345703 C-195.84014788 307.02655243 -203.42577023 342.57478444 -209.78146362 378.22946167 C-210.04797496 379.71978183 -210.3187716 381.20934331 -210.5942688 382.69802856 C-212.76296467 394.49637517 -214.0853331 405.63036867 -207.625 416.3125 C-200.8666407 425.86197393 -192.12289099 431.31286678 -180.625 433.3125 C-173.1507459 434.19470704 -166.45124817 432.93726928 -160.19921875 428.6484375 C-150.81624852 420.93935231 -148.94671817 411.50824425 -146.8984375 399.9140625 C-146.66468414 398.64331879 -146.43093079 397.37257507 -146.19009399 396.06332397 C-145.57262681 392.70582126 -144.9686951 389.34602597 -144.36773682 385.98553467 C-143.75859062 382.59302006 -143.13656284 379.20287241 -142.515625 375.8125 C-141.40134998 369.71822861 -140.29937563 363.62180223 -139.20330811 357.52423096 C-138.35010987 352.78585158 -137.4882197 348.04906255 -136.625 343.3125 C-135.78626595 343.35008423 -135.78626595 343.35008423 -134.93058777 343.38842773 C-129.00756939 343.6530012 -123.08430928 343.91158621 -117.16088867 344.16699219 C-114.96258187 344.26252196 -112.76433662 344.35948093 -110.56616211 344.45800781 C-96.90893109 345.06901381 -83.29631471 345.45944852 -69.625 345.3125 C-69.63539307 346.42254395 -69.64578613 347.53258789 -69.65649414 348.67626953 C-69.7424492 358.97034557 -69.57042667 369.25877024 -69.30661011 379.5491333 C-69.26923413 381.04348737 -69.23477204 382.53791751 -69.20339966 384.03240967 C-68.95164446 403.54944623 -68.95164446 403.54944623 -59.87109375 420.28515625 C-52.97900025 426.84308764 -44.17524218 430.45527771 -34.625 430.3125 C-25.53691514 429.46618837 -17.27126618 426.77913737 -10.625 420.3125 C-3.8268745 411.28126933 -3.33122895 403.18144432 -3.46337891 392.15112305 C-3.47146387 390.87007281 -3.47954884 389.58902258 -3.4878788 388.26915264 C-3.59248644 374.80841958 -3.88095209 361.35135437 -4.2109375 347.89453125 C-4.2576373 345.92580004 -4.30433317 343.95706873 -4.35075819 341.98833102 C-4.49638034 335.81400271 -4.64541436 329.63976384 -4.796875 323.46557617 C-4.93231027 317.94287055 -5.06416945 312.42009478 -5.19238281 306.8972168 C-5.84067237 278.99537569 -6.54669162 251.09846086 -7.671875 223.2109375 C-7.71321941 222.18317011 -7.75456383 221.15540272 -7.7971611 220.09649086 C-8.61194472 163.78440718 -8.61194472 163.78440718 -33.625 115.3125 C-63.08098733 91.37599022 -103.10089349 128.40959646 -121.625 150.3125 Z M-7.625 121.3125 C-6.53763293 124.61084677 -5.42190346 127.89608202 -4.2578125 131.16796875 C4.79939578 156.94824842 7.22384 183.35925859 8.359375 210.5078125 C8.42201097 211.97262967 8.42201097 211.97262967 8.48591232 213.46703911 C9.54203688 238.34982022 10.19445831 263.24386663 10.80761719 288.14086914 C10.93446674 293.28456561 11.06634653 298.42809124 11.203125 303.5715332 C11.90008434 329.81225199 12.52095911 356.05802015 12.68574142 382.30827141 C12.70228711 384.58633202 12.72541586 386.86435621 12.75575638 389.14227486 C12.9681499 406.01122808 12.48030725 420.26798787 0.375 433.3125 C-5.58648617 438.54341188 -12.13570299 441.83268285 -19.625 444.3125 C-20.841875 444.725 -22.05875 445.1375 -23.3125 445.5625 C-38.1756831 448.85213811 -53.14488143 445.32420763 -65.8671875 437.3515625 C-76.85761252 429.22549754 -82.2763838 418.52172875 -84.625 405.3125 C-84.97638355 401.88753455 -85.12922225 398.46714258 -85.2578125 395.02734375 C-85.29937469 394.08564835 -85.34093689 393.14395294 -85.38375854 392.17372131 C-85.51332694 389.19941125 -85.6318478 386.22478317 -85.75 383.25 C-85.83650631 381.21936967 -85.92373896 379.18877015 -86.01171875 377.15820312 C-86.22454067 372.20995173 -86.42746384 367.26138421 -86.625 362.3125 C-95.26835885 361.60485192 -103.82836546 361.17203925 -112.5 361.25 C-113.97919922 361.25676758 -113.97919922 361.25676758 -115.48828125 361.26367188 C-117.86725797 361.27522031 -120.24609135 361.29149632 -122.625 361.3125 C-124.98148068 371.69999335 -127.25365303 382.09638628 -129.15234375 392.578125 C-129.28032349 393.28074463 -129.40830322 393.98336426 -129.54016113 394.70727539 C-130.17101138 398.1796375 -130.79023181 401.65352656 -131.39306641 405.13085938 C-133.05464962 414.36571547 -135.04674449 423.20805902 -139.9375 431.3125 C-140.494375 432.3025 -141.05125 433.2925 -141.625 434.3125 C-140.51274304 437.64927088 -140.02062386 438.01134372 -137.22265625 439.87890625 C-136.50634033 440.35948486 -135.79002441 440.84006348 -135.05200195 441.33520508 C-133.88157349 442.09740356 -133.88157349 442.09740356 -132.6875 442.875 C-131.88207764 443.40440186 -131.07665527 443.93380371 -130.24682617 444.47924805 C-111.10429765 456.89929109 -91.27901974 466.22818712 -69.625 473.3125 C-68.90586426 473.55242676 -68.18672852 473.79235352 -67.44580078 474.03955078 C-23.0908065 488.69880828 26.10677388 487.1353518 70.375 473.3125 C71.20660645 473.05629883 72.03821289 472.80009766 72.89501953 472.53613281 C99.54914778 464.18412172 124.55801849 450.75321383 146.375 433.3125 C146.375 432.9825 146.375 432.6525 146.375 432.3125 C145.79363785 432.29410568 145.2122757 432.27571136 144.61329651 432.25675964 C138.52875881 432.0615904 132.44508827 431.84753404 126.36157227 431.62280273 C124.09513733 431.54151812 121.82852785 431.46495112 119.56176758 431.39331055 C116.29190002 431.28912887 113.02304882 431.16764825 109.75390625 431.04296875 C108.75041641 431.01470505 107.74692657 430.98644135 106.71302795 430.95732117 C98.16984541 430.60311907 90.34206959 429.21476122 83.9453125 423.16015625 C78.03056481 416.20076406 75.97613816 408.33817367 76.375 399.3125 C77.38197679 392.56657421 78.9299798 386.62182968 83.375 381.3125 C83.85710937 380.72855469 84.33921875 380.14460938 84.8359375 379.54296875 C90.10629846 373.66639257 96.05263781 370.81548971 103.90380859 369.90185547 C107.77265888 369.69907091 111.6261577 369.60477407 115.5 369.5625 C116.85159956 369.53427409 118.20316452 369.50433767 119.5546875 369.47265625 C122.82818362 369.4025099 126.10099019 369.34953775 129.375 369.3125 C128.03650271 365.88985327 126.5878049 362.54961821 125.02734375 359.22265625 C124.58712891 358.27326172 124.14691406 357.32386719 123.69335938 356.34570312 C122.77358294 354.36694787 121.84910665 352.39037038 120.91992188 350.41601562 C116.80545944 341.50436791 116.80545944 341.50436791 116.375 336.3125 C112.88296107 337.59291427 110.02936405 339.1010107 107 341.25 C95.6908841 348.90740796 82.80488739 350.7135657 69.375 349.3125 C56.57849832 346.57520828 44.87826124 341.07508674 37.5 329.9375 C28.0673533 314.04174353 30.22402636 296.71536978 31.29296875 279.02587891 C31.39184075 277.33912678 31.49035111 275.65235343 31.58853149 273.96556091 C31.85346655 269.4311897 32.12339646 264.89712862 32.39429092 260.36311007 C32.67751525 255.60808153 32.95605234 250.85277837 33.23510742 246.09750366 C33.76306657 237.11274322 34.29518136 228.12823403 34.82882595 219.14380968 C35.43665996 208.90686978 36.03980542 198.66965528 36.64257622 188.4324162 C37.88153674 167.39213659 39.12632295 146.35220505 40.375 125.3125 C38.76693153 125.306579 37.15885678 125.30234422 35.55078125 125.29882812 C34.65528564 125.29629028 33.75979004 125.29375244 32.8371582 125.2911377 C30.31716695 125.31300177 27.87408184 125.49118948 25.375 125.8125 C13.54954598 127.0650403 3.59037844 125.36249777 -7.625 121.3125 Z M186.453125 126.12109375 C176.0404169 130.15139321 164.55364009 128.39977252 153.73168945 127.02416992 C153.00812256 126.93369385 152.28455566 126.84321777 151.5390625 126.75 C150.90436035 126.66621094 150.2696582 126.58242187 149.61572266 126.49609375 C146.53287192 126.24350018 143.46645348 126.28640785 140.375 126.3125 C137.60440593 168.44718752 135.09667982 210.59693309 132.625 252.75 C132.58488092 253.43414553 132.54476184 254.11829106 132.50342703 254.82316828 C131.45793182 272.65278854 130.41511332 290.48256495 129.375 308.3125 C129.98988281 308.10753906 130.60476563 307.90257812 131.23828125 307.69140625 C141.74918397 304.18777201 151.57642903 302.03567239 162.10546875 307.01953125 C168.96497222 310.92744114 172.58847632 315.19540563 176 322.33203125 C176.70327914 323.77002375 177.40656732 325.20801182 178.10986328 326.64599609 C178.47774963 327.4049115 178.84563599 328.1638269 179.22467041 328.94573975 C181.20774621 333.02584429 183.22666879 337.08819364 185.2421875 341.15234375 C185.65252228 341.97983124 186.06285706 342.80731873 186.48562622 343.65988159 C187.31891531 345.3400428 188.15248316 347.02006577 188.98632812 348.69995117 C189.84157893 350.42581955 190.69470941 352.15274 191.54589844 353.88061523 C192.79327505 356.41148668 194.04818155 358.93849505 195.3046875 361.46484375 C195.6848703 362.24069321 196.0650531 363.01654266 196.45675659 363.81590271 C198.17789409 367.73212965 198.17789409 367.73212965 201.375 370.3125 C232.85872036 312.94964441 243.20564331 248.8059573 225.24609375 185.25439453 C218.73687469 163.27118554 209.29428999 141.33089667 196.375 122.3125 C193.18446657 122.3125 189.3447469 124.87114389 186.453125 126.12109375 Z M-199.625 129.3125 C-231.87056017 183.17225036 -241.64527872 246.79064682 -226.39526367 307.78588867 C-224.22342377 316.1435141 -221.68070519 324.23213745 -218.625 332.3125 C-217.21122117 329.6599309 -216.22925882 327.20039958 -215.53100586 324.27954102 C-215.33961029 323.49143036 -215.14821472 322.7033197 -214.95101929 321.8913269 C-214.74933136 321.04160309 -214.54764343 320.19187927 -214.33984375 319.31640625 C-213.89246403 317.47409179 -213.44460947 315.63189258 -212.99633789 313.78979492 C-212.76286652 312.82463959 -212.52939514 311.85948425 -212.28884888 310.86508179 C-200.024285 260.37687944 -182.90727794 211.76132338 -155.0234375 167.62109375 C-153.53864846 165.61980042 -153.53864846 165.61980042 -153.625 164.3125 C-154.26824219 164.35890625 -154.91148437 164.4053125 -155.57421875 164.453125 C-165.49362062 164.84933506 -175.33278905 163.12516881 -182.88476562 156.30126953 C-186.43705312 152.24165478 -188.63853901 147.37509771 -191 142.5625 C-191.53238281 141.50933594 -192.06476563 140.45617187 -192.61328125 139.37109375 C-193.96499309 136.69174637 -195.2998291 134.00504096 -196.625 131.3125 C-197.12 130.3225 -197.12 130.3225 -197.625 129.3125 C-198.285 129.3125 -198.945 129.3125 -199.625 129.3125 Z M130.8203125 321.65234375 C128.02981089 324.85764965 126.40497924 328.00312993 126.34901428 332.3142395 C126.92408325 338.42667664 128.79811221 343.17216216 131.55859375 348.6171875 C131.97416031 349.4629837 132.38972687 350.30877991 132.81788635 351.1802063 C134.13665563 353.85584858 135.47442022 356.52147193 136.8125 359.1875 C137.70759552 360.99940013 138.60148747 362.81189536 139.49414062 364.625 C141.12897258 367.93174909 142.76561105 371.23749204 144.41967773 374.53466797 C144.74975327 375.1936911 145.0798288 375.85271423 145.41990662 376.53170776 C146.47220506 378.56184023 146.47220506 378.56184023 148.375 381.3125 C147.55362549 381.24466309 146.73225098 381.17682617 145.88598633 381.10693359 C137.3006964 380.44056958 128.75123772 380.03763332 120.14135742 379.96240234 C118.74633275 379.94569154 117.3513987 379.91820751 115.95678711 379.88037109 C107.44493465 379.65270205 100.2370773 379.68437962 93.375 385.3125 C88.64999727 390.09645999 86.98683682 395.36092921 86.75 402 C87.04076787 407.61710657 87.83585435 410.93513565 91.375 415.3125 C96.89266574 419.68065204 100.96204425 420.40715592 107.84912109 420.64135742 C109.16504242 420.68777878 110.48096375 420.73420013 111.83676147 420.7820282 C113.27397234 420.82779866 114.71119821 420.87309995 116.1484375 420.91796875 C117.6337596 420.96613887 119.11908062 421.01434192 120.60440063 421.06257629 C123.72298843 421.16250377 126.84167289 421.2584485 129.96044922 421.35229492 C133.91877324 421.47221663 137.87641736 421.6073075 141.83411217 421.74627209 C144.90720152 421.85147957 147.98056398 421.94557011 151.05409622 422.03682899 C152.51076753 422.0818809 153.96732393 422.13085355 155.4237175 422.18413353 C174.53965366 423.03962817 174.53965366 423.03962817 191.37890625 415.2265625 C196.11369237 410.68635664 198.17394724 405.79084098 198.49609375 399.21606445 C198.03165502 388.07983503 191.83032145 377.63451065 186.8125 367.9375 C185.37199368 365.1180731 183.93814582 362.29527497 182.50390625 359.47265625 C182.14945435 358.77758469 181.79500244 358.08251312 181.42980957 357.36637878 C177.7889723 350.20805726 174.35317317 342.95484159 171.00170898 335.65673828 C165.42419985 323.4818645 165.42419985 323.4818645 155.375 315.3125 C146.0132279 313.02406682 137.8408993 315.00727671 130.8203125 321.65234375 Z " fill="#010101" transform="translate(249.625,-0.3125)"/>
<path d="M0 0 C0.66 0 1.32 0 2 0 C3.33577367 27.34961054 4.35230064 54.61540047 4 82 C-6.653033 82.04397705 -17.28857939 81.9728145 -27.9375 81.625 C-29.17951172 81.5940625 -30.42152344 81.563125 -31.70117188 81.53125 C-33.47137695 81.47324219 -33.47137695 81.47324219 -35.27734375 81.4140625 C-36.33171631 81.3826416 -37.38608887 81.3512207 -38.47241211 81.31884766 C-41 81 -41 81 -43 79 C-32.69046286 52.02977819 -20.22850349 27.20705134 -3 4 C-2.4534375 3.21367187 -1.906875 2.42734375 -1.34375 1.6171875 C-0.67859375 0.81667969 -0.67859375 0.81667969 0 0 Z M-15 58 C-15.66 59.98 -16.32 61.96 -17 64 C-15.68 64 -14.36 64 -13 64 C-13.33 62.02 -13.66 60.04 -14 58 C-14.33 58 -14.66 58 -15 58 Z " fill="#000000" transform="translate(174,198)"/>
</svg>
